<?xml version="1.0" encoding="UTF-8"?>
<svg width="66px" height="20px" viewBox="0 0 66 20" version="1.1" xmlns="http://www.w3.org/2000/svg" xmlns:xlink="http://www.w3.org/1999/xlink">
    <!-- Generator: Sketch 47.1 (45422) - http://www.bohemiancoding.com/sketch -->
    <title>logo</title>
    <desc>Created with Sketch.</desc>
    <defs></defs>
    <g id="Symbols" stroke="none" stroke-width="1" fill="none" fill-rule="evenodd">
        <g id="Interface-/-Footer-/-Super-Thin" transform="translate(-19.000000, -23.000000)" fill="#FFFFFF">
            <path d="M84.1124635,40.1100292 L83.7643622,39.707887 C83.6679649,39.5963973 83.5725414,39.4814995 83.4678676,39.3636806 L83.4498539,39.3636806 L83.4498539,39.3446933 C81.8373905,37.473223 79.4079844,34.6548199 79.2161636,34.4313535 C79.5029211,34.0949367 84.8748783,27.8666018 84.8748783,27.8666018 L76.2653359,27.8666018 C76.2653359,27.8666018 75.9488802,28.2288218 75.7137293,28.503408 L75.7137293,27.8666018 L65.9771178,27.8666018 C65.8675755,27.5944499 65.3427459,26.281889 65.3427459,26.281889 L61.9284323,26.281889 C61.443038,24.372444 59.7341772,23 57.7575463,23 C55.6202532,23 53.8485881,24.5623174 53.4990263,26.6080818 C53.4386563,26.5954236 46.9099318,25.3101266 46.9099318,25.3101266 L46.9099318,27.9109056 L38.8670886,27.9109056 C37.5856865,27.0058423 36.1037001,26.5223953 34.5657254,26.5223953 C33.4381694,26.5223953 32.3636806,26.7838364 31.3515093,27.2731256 L31.3515093,25.6484907 L24.2711782,25.6484907 L24.2711782,26.9148004 L19,26.9148004 L19,41.6085686 L26.0847128,43 L26.0847128,41.6314508 L31.3515093,41.6314508 L31.3515093,40.7794547 C32.3636806,41.2643622 33.4381694,41.5258033 34.5657254,41.5258033 C36.6187926,41.5258033 38.5418695,40.6937683 39.9493671,39.2341772 L39.9493671,41.6820837 L46.570594,42.9844206 L46.570594,34.7555988 L46.9099318,34.7555988 L46.9099318,41.6314508 L65.6937683,41.6314508 L65.6937683,40.9980526 C66.2059396,40.9980526 75.7137293,40.993184 75.7137293,40.993184 L75.7137293,40.3602726 C75.9488802,40.6280428 76.2653359,40.993184 76.2653359,40.993184 L84.8763389,40.993184 C84.8763389,40.993184 84.570594,40.6397274 84.1124635,40.1100292 L84.1124635,40.1100292 Z M53.5866602,28.409445 C53.7273612,28.9225901 53.9581305,29.4172347 54.2906524,29.8680623 L54.2906524,35.1139241 L53.5866602,35.1139241 L53.5866602,28.409445 Z M76.6986368,40.194742 C76.6986368,40.194742 75.6426485,38.9746835 74.9610516,38.1806232 L74.9610516,40.194742 L65.345667,40.1986368 C65.345667,40.1986368 64.9454722,39.1991237 64.9298929,39.1630964 L64.9298929,40.8344693 L47.7541383,40.8344693 L47.7541383,33.9513145 L45.7872444,33.9513145 L45.7872444,42.0126582 L40.7799416,41.0287244 L40.7799416,36.5472249 C39.7862707,38.9956183 37.3831548,40.728335 34.5798442,40.728335 C33.070594,40.728335 31.6738072,40.2239533 30.5520935,39.3777994 L30.5520935,40.8344693 L25.2760467,40.8344693 L25.2760467,42.0272639 L19.8159688,40.9542356 L19.8159688,27.7293087 L25.090555,27.7293087 L25.090555,26.4615385 L30.5520935,26.4615385 L30.5520935,28.6840312 C31.6738072,27.838851 33.0691334,27.3369036 34.5798442,27.3369036 C36.1110029,27.3369036 37.5243427,27.8529698 38.6548199,28.7220058 L47.7541383,28.7220058 L47.7541383,26.2969815 L52.812074,27.292113 L52.812074,35.932814 L55.1407011,35.932814 L55.1407011,30.2823759 L55.8773126,30.2823759 C54.9157741,29.6528724 54.2745862,28.5642648 54.2745862,27.3330088 C54.2745862,25.3933788 55.8568647,23.8096397 57.7984421,23.8096397 C59.6616358,23.8096397 61.187926,25.2594937 61.3140214,27.0925024 L64.8432327,27.0925024 C64.8432327,27.0925024 65.3773126,28.4313535 65.4771178,28.6791626 L74.9610516,28.6791626 L74.9610516,30.6942551 C75.6426485,29.9021422 76.6986368,28.6791626 76.6986368,28.6791626 L83.1713729,28.6791626 C83.1713729,28.6791626 79.1012658,33.3987342 78.2074002,34.436222 C79.1012658,35.4761441 83.1733204,40.194742 83.1733204,40.194742 L76.6986368,40.194742 Z M29.4337877,31.0623174 L29.4337877,27.5783836 L26.2069133,27.5783836 L26.2069133,32.5248296 L24.157741,32.5248296 L24.157741,28.8485881 L20.932814,28.8485881 L20.932814,40.0331061 L24.157741,40.6674781 L24.157741,36.1085686 L26.2069133,36.1085686 L26.2069133,39.7151899 L29.4337877,39.7151899 L29.4337877,36.9985394 C28.9284323,36.1256086 28.6319377,35.1139241 28.6319377,34.0340798 C28.6319377,32.9518014 28.9284323,31.9391431 29.4337877,31.0623174 L29.4337877,31.0623174 Z M56.2580331,39.7151899 L59.3427459,39.7151899 L59.3427459,31.4016553 L56.2580331,31.4016553 L56.2580331,39.7151899 Z M51.6937683,28.2117819 L48.8709834,27.6572541 L48.8709834,39.7151899 L55.6256086,39.7151899 L55.6256086,37.0540409 L51.6937683,37.0540409 L51.6937683,28.2117819 Z M66.1976631,33.4157741 L64.0866602,28.2132425 L60.4625122,28.2132425 L60.4625122,39.7151899 L63.8135346,39.7151899 L63.8135346,33.432814 L66.1051607,39.0793574 L69.5486855,39.0793574 L69.5486855,29.7974684 L66.1976631,29.7974684 L66.1976631,33.4157741 Z M80.7332035,29.7974684 L77.2108082,29.7974684 L73.8451801,33.7059396 L73.8451801,29.7974684 L70.6742941,29.7974684 L70.6742941,39.0744888 L73.8451801,39.0744888 L73.8451801,35.1738072 L77.2108082,39.0744888 L80.7297955,39.0744888 L76.7307692,34.436222 L80.7332035,29.7974684 Z M39.2872444,31.4133398 C38.3631938,29.7575463 36.5988315,28.6392405 34.5798442,28.6392405 C31.6071081,28.6392405 29.1908471,31.0613437 29.1908471,34.0340798 C29.1908471,37.0024343 31.6071081,39.4225901 34.5798442,39.4225901 C37.5491723,39.4225901 39.9688413,37.0024343 39.9688413,34.0340798 C39.9688413,33.6192795 39.9148004,33.2200584 39.8281402,32.8300876 L41.902629,32.8300876 L41.902629,40.1051607 L44.6674781,40.650925 L44.6674781,32.8300876 L47.7541383,32.8300876 L47.7541383,29.8393379 L39.2872444,29.8393379 L39.2872444,31.4133398 Z M34.5798442,36.0793574 C33.4508277,36.0793574 32.5355404,35.164557 32.5355404,34.0340798 C32.5355404,32.9011685 33.4508277,31.9849075 34.5798442,31.9849075 C35.7074002,31.9849075 36.6260954,32.9011685 36.6260954,34.0340798 C36.6260954,35.164557 35.7074002,36.0793574 34.5798442,36.0793574 L34.5798442,36.0793574 Z M59.1703992,25.7663096 C59.3943525,25.8709834 59.7419669,26.0856865 59.7960078,26.1212269 C60.0136319,26.281889 60.0929893,26.1231743 59.9849075,25.9177215 C59.3777994,24.771665 58.06037,24.6689387 58.06037,24.6689387 C57.8909445,24.6606621 58.0686465,24.7278481 58.0686465,24.7278481 C58.6592016,24.9668939 58.9727361,25.3432327 58.9727361,25.3432327 C57.7624148,24.7765336 56.9834469,24.7434275 56.781889,24.8296008 C56.6893866,24.8812074 56.8276534,24.9201558 56.9844206,24.9600779 C58.9922103,25.5209348 59.6538462,27.0608569 59.6538462,27.0608569 C57.5676728,25.1178189 56.006816,25.2663096 55.8539435,25.443038 C55.8047712,25.5029211 55.9347614,25.5428432 56.1397274,25.6153846 C58.312074,26.4824732 58.9099318,28.023369 58.9099318,28.023369 C56.8164557,26.0194742 55.3008763,26.0394352 55.2964946,26.2531646 C55.3008763,26.3529698 55.5282376,26.4089581 55.6650438,26.4776047 C57.4167478,27.2740993 57.993184,28.6061344 57.993184,28.6061344 C56.9074976,27.3977605 55.4625122,27.1397274 55.4625122,27.1397274 C55.2453749,27.0866602 55.056962,27.0978578 55.0803311,27.1874391 C55.1114898,27.2862707 55.2093476,27.3042843 55.4547225,27.4814995 C56.3300876,28.0813048 56.6801363,28.7297955 56.6801363,28.7297955 C56.3286271,28.4425511 55.9605648,28.2609542 55.6884129,28.2088608 C55.3062317,28.1299903 55.2293087,28.2370983 55.3008763,28.4206426 C55.3714703,28.6002921 55.5890944,29.0053554 56.0150925,29.372444 C56.1017527,29.4488802 56.1460565,29.4800389 56.2083739,29.526777 C56.3685492,29.6436222 56.5374878,29.7302824 56.2950341,29.4951315 C56.2580331,29.4581305 56.2190847,29.4089581 56.1694255,29.3534567 C56.0555015,29.2278481 55.7419669,28.7848101 55.812074,28.7088608 C55.8802337,28.6377799 56.3846154,28.8773126 57.0813048,29.5589094 C57.2142162,29.6923077 57.3159688,29.7911392 57.4381694,29.7974684 C57.7736125,29.8281402 57.6684518,29.3631938 57.6684518,29.3631938 C57.5248296,28.7629017 57.365628,28.6202532 57.365628,28.6202532 C57.9269718,29.0073028 58.3013632,29.4703019 58.3013632,29.4703019 C58.416261,29.5959104 58.5701071,29.8281402 58.7531646,29.7974684 C59.0428432,29.7531646 59.0282376,29.4221032 58.9444985,29.1616358 C58.845667,28.8753651 58.4615385,28.1932814 58.369036,28.1051607 C58.8734177,28.5584226 58.9727361,28.7069133 59.1212269,28.8753651 C59.271665,29.0418695 59.4878286,29.2555988 59.6888997,29.1518987 C60.053554,28.9683544 59.7960078,28.3865628 59.7960078,28.3865628 C59.496592,27.5014606 58.9625122,27.0866602 58.9625122,27.0866602 C59.3505355,27.3412853 59.7161636,27.6363194 59.8276534,27.7220058 C59.9849075,27.8500487 60.161149,27.9707887 60.2994158,27.8875365 C60.56037,27.7293087 60.2487829,27.1397274 60.2487829,27.1397274 C59.7594937,26.1265823 59.2882181,25.8310613 59.1703992,25.7663096 L59.1703992,25.7663096 Z" id="logo"></path>
        </g>
    </g>
</svg>