<?xml version="1.0" encoding="UTF-8"?>
<svg width="107px" height="33px" viewBox="0 0 107 33" version="1.1" xmlns="http://www.w3.org/2000/svg" xmlns:xlink="http://www.w3.org/1999/xlink">
    <!-- Generator: Sketch 41.2 (35397) - http://www.bohemiancoding.com/sketch -->
    <title>Hotlink logo</title>
    <desc>Created with Sketch.</desc>
    <defs></defs>
    <g id="v3" stroke="none" stroke-width="1" fill="none" fill-rule="evenodd">
        <g id="3.0-Home-&gt;-Nav" transform="translate(-16.000000, -11.000000)">
            <g id="Header">
                <g id="V3-Header">
                    <g id="Hotlink-logo" transform="translate(16.000000, 11.000000)">
                        <path d="M105.726335,27.7387174 L105.161545,27.0891952 C105.005301,26.9101628 104.849259,26.7260844 104.679843,26.533125 L104.648634,26.533125 L104.648634,26.5020416 C102.035443,23.4766566 98.0894129,18.9205144 97.7771269,18.5600275 C98.2430227,18.0154622 106.962509,7.94625273 106.962509,7.94625273 L92.9878636,7.94625273 C92.9878636,7.94625273 92.4749527,8.53360814 92.0925492,8.97664771 L92.0925492,7.94625273 L76.2899867,7.94625273 C76.1106402,7.50684628 75.2621383,5.38388949 75.2621383,5.38388949 L69.7177955,5.38388949 C68.9292784,2.2985579 66.1572083,0.0809379802 62.9480189,0.0809379802 C59.4784223,0.0809379802 56.6044186,2.60737364 56.037197,5.91291304 C55.938303,5.89212349 45.341858,3.81538813 45.341858,3.81538813 L45.341858,8.01911709 L32.2882633,8.01911709 C30.2084508,6.5559764 27.8009508,5.77283584 25.3046894,5.77283584 C23.4749489,5.77283584 21.7309299,6.19690242 20.0860076,6.98609818 L20.0860076,4.36136628 L8.59667992,4.36136628 L8.59667992,6.40923846 L0.0409356061,6.40923846 L0.0409356061,30.16282 L11.537964,32.4105141 L11.537964,30.2003623 L20.0858049,30.2003623 L20.0858049,28.8211872 C21.7309299,29.6069517 23.4747462,30.0294035 25.3044867,30.0294035 C28.6389148,30.0294035 31.7597481,28.6853487 34.0450492,26.322 L34.0450492,30.2833187 L44.7898352,32.3858896 L44.7898352,19.0854179 L45.3416553,19.0854179 L45.3416553,30.2003623 L75.8291572,30.2003623 L75.8291572,29.1752152 C76.6596231,29.1752152 92.0923466,29.1711784 92.0923466,29.1711784 L92.0923466,28.1446184 C92.47475,28.5777677 92.987661,29.1711784 92.987661,29.1711784 L106.965144,29.1711784 C106.965144,29.1707747 106.470877,28.5967407 105.726335,27.7387174 L105.726335,27.7387174 Z M57.3203864,19.663085 L56.1776345,19.663085 L56.1776345,8.82526745 C56.4068333,9.65483129 56.781536,10.4547246 57.3203864,11.1817535 L57.3203864,19.663085 L57.3203864,19.663085 Z" id="Shape" fill="#ED1C24"></path>
                        <path d="M93.6906591,27.8759689 C93.6906591,27.8759689 91.9776458,25.9029794 90.8713712,24.6225043 L90.8713712,27.8759689 L75.2643674,27.8838406 C75.2643674,27.8838406 74.6164905,26.2673013 74.5903485,26.2063455 L74.5903485,28.9114098 L46.7107689,28.9114098 L46.7107689,17.7807219 L43.5196155,17.7807219 L43.5196155,30.8143607 L35.3934924,29.2238587 L35.3934924,21.979203 C33.7797784,25.9391089 29.8779261,28.7390382 25.328197,28.7390382 C22.8789508,28.7390382 20.6118883,27.9236032 18.7922803,26.5563366 L18.7922803,28.9114098 L10.2286326,28.9114098 L10.2286326,30.8387833 L1.36323674,29.1045711 L1.36323674,7.72483386 L9.92668182,7.72483386 L9.92668182,5.67534695 L18.7920777,5.67534695 L18.7920777,9.2697199 C20.6116856,7.90104049 22.8761136,7.08843124 25.3279943,7.08843124 C27.8137178,7.08843124 30.1069223,7.92445397 31.9419318,9.32946464 L46.7107689,9.32946464 L46.7107689,5.40972505 L54.9205871,7.01697976 L54.9205871,20.9877632 L58.6996326,20.9877632 L58.6996326,11.8559003 L59.897303,11.8559003 C58.3354678,10.836001 57.2968788,9.07676052 57.2968788,7.08459627 C57.2968788,3.94759356 59.8632576,1.38866161 63.0155019,1.38866161 C66.0398731,1.38866161 68.5178958,3.73606487 68.7209527,6.698072 L74.449911,6.698072 C74.449911,6.698072 75.3166515,8.85897479 75.4777595,9.26083892 L90.8713712,9.26083892 L90.8713712,12.5183403 C91.9776458,11.2362504 93.6906591,9.26083892 93.6906591,9.26083892 L104.198545,9.26083892 C104.198545,9.26083892 97.5921061,16.8920189 96.1399053,18.5689085 C97.5921061,20.2502386 104.203612,27.8759689 104.203612,27.8759689 L93.6906591,27.8759689 L93.6906591,27.8759689 Z" id="Shape" fill="#FFFFFF"></path>
                        <path d="M16.9753068,13.1133657 L16.9753068,7.47979968 L11.7383864,7.47979968 L11.7383864,15.4763107 L8.41186174,15.4763107 L8.41186174,9.53191051 L3.17757576,9.53191051 L3.17757576,27.6170077 L8.41186174,28.6421548 L8.41186174,21.2707434 L11.7383864,21.2707434 L11.7383864,27.1025166 L16.9753068,27.1025166 L16.9753068,22.7106725 C16.1555814,21.2992029 15.6738788,19.6632869 15.6738788,17.9173678 C15.6738788,16.1672102 16.1555814,14.5298813 16.9753068,13.1133657" id="Shape" fill="#ED1C24"></path>
                        <rect id="Rectangle-path" fill="#ED1C24" x="60.5139716" y="13.6627751" width="5.00812689" height="13.4393378"></rect>
                        <polygon id="Shape" fill="#ED1C24" points="53.1062481 8.5063597 48.525108 7.60938118 48.525108 27.102113 59.4885549 27.102113 59.4885549 22.7998859 53.1062481 22.7998859"></polygon>
                        <polygon id="Shape" fill="#ED1C24" points="76.6470587 16.9174507 73.2212348 8.50757074 67.3388693 8.50757074 67.3388693 27.102113 72.7764148 27.102113 72.7764148 16.9461121 76.4958807 26.0743419 82.0868333 26.0743419 82.0868333 11.0677137 76.6470587 11.0677137"></polygon>
                        <polygon id="Shape" fill="#ED1C24" points="100.239343 11.0677137 94.5235568 11.0677137 89.0598693 17.3857204 89.0598693 11.0677137 83.9111023 11.0677137 83.9111023 26.0664701 89.0598693 26.0664701 89.0598693 19.7613813 94.5235568 26.0664701 100.236506 26.0664701 93.7425379 18.5689085"></polygon>
                        <path d="M32.9675511,13.6783168 C31.4683352,11.0069598 28.6052746,9.19746105 25.328197,9.19746105 C20.5050909,9.19746105 16.5825682,13.1121546 16.5825682,17.917166 C16.5825682,22.7183424 20.5050909,26.6277881 25.328197,26.6277881 C30.1488712,26.6277881 34.0740284,22.7183424 34.0740284,17.917166 C34.0740284,17.247056 33.9881042,16.6013688 33.847464,15.9726361 L37.2131004,15.9726361 L37.2131004,27.7346806 L41.7030473,28.6147045 L41.7030473,15.9724342 L46.7109716,15.9724342 L46.7109716,11.1375505 L32.9677538,11.1375505 L32.9677538,13.6783168 L32.9675511,13.6783168 Z M25.3279943,21.2249256 C23.4956193,21.2249256 22.0093731,19.7446285 22.0093731,17.9169642 C22.0093731,16.0840519 23.4956193,14.6037548 25.3279943,14.6037548 C27.1577348,14.6037548 28.64925,16.0840519 28.64925,17.9169642 C28.6494527,19.7446285 27.1579375,21.2249256 25.3279943,21.2249256 L25.3279943,21.2249256 Z" id="Shape" fill="#ED1C24"></path>
                        <path d="M65.2408182,4.55291277 C65.6053883,4.72124762 66.170178,5.0688167 66.2561023,5.12714856 C66.6103371,5.38510053 66.7402367,5.12977249 66.563322,4.79673591 C65.5796515,2.94424518 63.4400568,2.77712137 63.4400568,2.77712137 C63.1642481,2.76521279 63.4526212,2.87420658 63.4526212,2.87420658 C64.4105549,3.25911613 64.9206288,3.86968318 64.9206288,3.86968318 C62.9559223,2.95191511 61.6905663,2.89741822 61.3655133,3.03628438 C61.2143352,3.12166285 61.4382652,3.18403152 61.6960379,3.24882227 C64.9518371,4.15629648 66.0273087,6.64498799 66.0273087,6.64498799 C62.6407992,3.50394847 60.1056288,3.74393665 59.8583939,4.0293389 C59.7803731,4.12783699 59.9886989,4.1914167 60.321858,4.31050251 C63.8483996,5.71046717 64.819303,8.20057157 64.819303,8.20057157 C61.4224583,4.96123579 58.9602424,4.99211737 58.9549735,5.33968645 C58.9600398,5.49893849 59.3298788,5.59380345 59.5509716,5.70239356 C62.3959962,6.98973131 63.3304223,9.14276232 63.3304223,9.14276232 C61.5679621,7.18935141 59.2255133,6.77335845 59.2255133,6.77335845 C58.8712784,6.6865671 58.564464,6.70473274 58.600536,6.85106699 C58.6528201,7.00809878 58.8114962,7.03918219 59.2097064,7.32438261 C60.6337386,8.29523469 61.1985284,9.34278611 61.1985284,9.34278611 C60.628267,8.87976434 60.0320663,8.58427007 59.589678,8.49990081 C58.9701723,8.37556715 58.8455417,8.54672777 58.9600398,8.84484596 C59.0743352,9.13630343 59.4310019,9.78723856 60.1210303,10.37964 C60.2614678,10.5051847 60.3319905,10.5544337 60.4333163,10.6295183 C60.6937235,10.8176335 60.9668977,10.9589218 60.5737538,10.5790582 C60.5115398,10.5207264 60.4513523,10.438981 60.370697,10.3495658 C60.1862841,10.1485328 59.6760076,9.4317977 59.7905057,9.30867509 C59.8997348,9.19342425 60.7198655,9.58095772 61.8490398,10.6828042 C62.0650663,10.899177 62.2318485,11.057218 62.4296364,11.0677137 C62.973553,11.1183757 62.8045417,10.3653093 62.8045417,10.3653093 C62.5702765,9.39566828 62.3125038,9.16496476 62.3125038,9.16496476 C63.223625,9.79228456 63.8327955,10.5403049 63.8327955,10.5403049 C64.0176136,10.7423471 64.267483,11.1183757 64.5665966,11.0677137 C65.0351269,10.9962622 65.0091875,10.4625964 64.8738163,10.0423648 C64.712303,9.57833379 64.0905682,8.47507444 63.9393902,8.332777 C64.7595208,9.06626483 64.9206288,9.30605116 65.1599602,9.57833379 C65.4049659,9.8479925 65.7563636,10.1901119 66.081822,10.025612 C66.6751856,9.72870485 66.2558996,8.7875233 66.2558996,8.7875233 C65.7691307,7.35647522 64.9025928,6.6865671 64.9025928,6.6865671 C65.5322311,7.09731222 66.1284318,7.57304992 66.3081837,7.71433816 C66.5631193,7.92041716 66.8496686,8.1162023 67.0731932,7.9801619 C67.4975455,7.72483386 66.9925379,6.77335845 66.9925379,6.77335845 C66.1961174,5.13602954 65.4335398,4.65786975 65.2408182,4.55291277" id="Shape" fill="#ED1C24"></path>
                    </g>
                </g>
            </g>
        </g>
    </g>
</svg>