<svg xmlns="http://www.w3.org/2000/svg" width="40" height="40"><path fill="#C00" fill-rule="evenodd" d="M30.048 21.971V18.03h-8.077V9.952H18.03v8.077H9.952v3.942h8.077v8.077h3.942v-8.077h8.077zM20 0c3.654 0 7.035.913 10.144 2.74a18.956 18.956 0 0 1 7.116 7.116C39.087 12.965 40 16.346 40 20s-.913 7.035-2.74 10.144a18.956 18.956 0 0 1-7.116 7.116C27.035 39.087 23.654 40 20 40s-7.035-.913-10.144-2.74c-3.013-1.763-5.385-4.151-7.116-7.164C.913 26.987 0 23.622 0 20s.913-6.987 2.74-10.096A19.684 19.684 0 0 1 9.904 2.74C13.013.913 16.378 0 20 0z"/></svg>