<svg xmlns="http://www.w3.org/2000/svg" width="22" height="18"><path fill="#E5E5E5" fill-rule="evenodd" d="M21.008 7.202h-2.9V4.31c0-.22-.18-.4-.402-.4h-.826c-.222 0-.402.18-.402.4V7.2h-2.9c-.222 0-.402.18-.402.4v.825c0 .22.18.4.4.4h2.902v2.894c0 .22.18.4.402.4h.826c.22 0 .4-.18.4-.4v-2.9h2.902c.22 0 .4-.18.4-.4V7.6c0-.22-.18-.4-.4-.4zM9.26 9.738c-.612-.43-1.166-1.063-1.176-1.257 0-.35.032-.52.827-1.14 1.03-.8 1.6-1.85 1.6-2.97 0-1.01-.31-1.91-.832-2.54h.41c.084 0 .167-.02.235-.07l1.14-.822c.143-.1.2-.282.148-.447-.053-.164-.205-.277-.38-.277H6.12c-.557 0-1.124.1-1.68.29-1.86.64-3.16 2.22-3.16 3.843 0 2.298 1.784 4.04 4.17 4.096-.046.18-.07.36-.07.538 0 .356.09.69.276 1.015h-.07c-2.274 0-4.33 1.115-5.11 2.77-.2.433-.304.868-.304 1.298 0 .42.105.82.316 1.2.49.875 1.542 1.554 2.965 1.91.737.187 1.526.28 2.345.28.737 0 1.44-.094 2.087-.28 2.02-.587 3.33-2.07 3.33-3.786 0-1.644-.53-2.63-1.953-3.633zm-6.447 3.766c0-1.197 1.524-2.246 3.26-2.246h.048c.38.004.75.06 1.1.166l.35.235c.806.54 1.338.9 1.486 1.48.035.142.05.29.05.43 0 1.49-1.113 2.244-3.312 2.244-1.665 0-2.97-1.02-2.97-2.32zm1.58-11.307c.272-.31.628-.472 1.027-.472h.045c1.13.034 2.208 1.287 2.406 2.795.12.844-.07 1.638-.5 2.122-.27.31-.62.473-1.04.473h-.01C5.21 7.08 4.11 5.78 3.91 4.275c-.11-.843.066-1.6.486-2.078z"/></svg>