<svg xmlns="http://www.w3.org/2000/svg" width="20" height="20"><g fill="#E5E5E5" fill-rule="evenodd"><path d="M10.08 4.856c-2.8 0-5.12 2.186-5.12 4.91 0 2.722 2.28 4.908 5.12 4.908 2.84 0 5.12-2.225 5.12-4.91 0-2.684-2.32-4.908-5.12-4.908zm0 8.053c-1.8 0-3.28-1.42-3.28-3.15s1.48-3.14 3.28-3.14c1.8 0 3.28 1.42 3.28 3.143s-1.48 3.144-3.28 3.144zm5.32-7.06c-.64 0-1.16-.5-1.16-1.115s.52-1.11 1.16-1.11c.64 0 1.16.497 1.16 1.11 0 .615-.52 1.113-1.16 1.113z"/><path d="M18.4 1.864C17.36.83 15.88.292 14.2.292H5.96c-3.48 0-5.8 2.224-5.8 5.56v7.863c0 1.65.56 3.068 1.68 4.103 1.08.997 2.52 1.496 4.16 1.496h8.16c1.72 0 3.16-.537 4.2-1.496 1.08-.997 1.64-2.416 1.64-4.065v-7.9c0-1.61-.56-2.99-1.6-3.99zm-.24 11.89c0 1.188-.36 2.147-1.08 2.8-.72.65-1.72.996-2.92.996H6c-1.2 0-2.2-.345-2.92-.997-.72-.69-1.08-1.65-1.08-2.838V5.853c0-1.15.36-2.11 1.08-2.8C3.76 2.4 4.8 2.056 6 2.056h8.24c1.2 0 2.2.345 2.92 1.036.68.69 1.08 1.65 1.08 2.76v7.9h-.08z"/></g></svg>