<svg xmlns="http://www.w3.org/2000/svg" width="20" height="15"><path fill="#E5E5E5" fill-rule="evenodd" d="M19.8 3.89s-.195-1.35-.795-1.944c-.76-.78-1.613-.783-2.004-.83C14.205.92 10.006.92 10.006.92h-.008s-4.2 0-6.997.196c-.392.046-1.244.05-2.005.83C.395 2.54.2 3.888.2 3.888S0 5.47 0 7.055V8.54c0 1.585.2 3.17.2 3.17s.195 1.347.795 1.94c.76.78 1.76.756 2.205.838 1.6.15 6.8.197 6.8.197s4.203-.007 7-.205c.392-.045 1.245-.05 2.005-.83.6-.593.795-1.94.795-1.94s.2-1.585.2-3.17V7.057c0-1.584-.2-3.167-.2-3.167zM7.935 10.34v-5.5l5.403 2.76-5.403 2.74z"/></svg>