<svg xmlns="http://www.w3.org/2000/svg" width="20" height="18"><path fill="#E5E5E5" fill-rule="evenodd" d="M20 2.858c-.735.326-1.525.545-2.356.643.847-.5 1.498-1.3 1.805-2.26-.8.47-1.68.81-2.61 1-.75-.79-1.82-1.29-3-1.29-2.27 0-4.11 1.83-4.11 4.09 0 .32.032.64.102.93C6.43 5.8 3.402 4.18 1.38 1.7c-.346.6-.55 1.303-.55 2.053 0 1.42.726 2.67 1.826 3.403-.67-.022-1.305-.205-1.858-.51v.05c0 1.98 1.413 3.634 3.29 4.01-.344.09-.707.143-1.08.143-.266 0-.52-.03-.77-.07.52 1.62 2.035 2.8 3.83 2.84-1.4 1.09-3.17 1.74-5.09 1.74-.334 0-.66-.02-.98-.06 1.814 1.16 3.97 1.835 6.29 1.835 7.545 0 11.673-6.23 11.673-11.636 0-.177 0-.354-.01-.53.81-.57 1.5-1.29 2.05-2.11z"/></svg>