<svg width="47" height="20" viewBox="0 0 47 20" xmlns="http://www.w3.org/2000/svg"><title>maxis-white</title><g fill="#FFF" fill-rule="evenodd"><path d="M37.915 19.476h-2.812V10.07h2.816M45.558 12.704l-.16-.08c-.954-.53-1.945-.833-2.734-.833-.807 0-1.296.247-1.296.65 0 .404.1.485 1.678 1.115 1.323.527 1.988.95 2.496 1.58.32.424.485.914.485 1.518 0 1.9-1.378 2.975-3.81 2.975-1.17 0-2.63-.302-3.34-.69v-2.065c1.136.59 2.085.874 2.978.874.87 0 1.417-.26 1.417-.71 0-.404-.247-.608-1.1-.972l-.686-.283c-.356-.162-.6-.264-.746-.323-.302-.125-.568-.27-.81-.406-.77-.488-1.238-1.295-1.238-2.23 0-1.74 1.542-2.894 3.83-2.894 1.12 0 2.065.2 2.896.627l.144.06-.004 2.087zM21.054 17.14c-.44.423-1.075.686-1.562.686-.587 0-1.014-.426-1.014-.994 0-.668.487-1.154 1.548-1.54l.767-.3.26-.106v2.253zm2.958.578l.004-4.614c0-.895-.084-1.32-.28-1.704-.527-.953-1.87-1.52-3.675-1.52-.645-.004-1.495.1-2.064.26-.61.16-1.46.546-2.01.873v2.39c.934-.97 2.268-1.578 3.445-1.578 1.12 0 1.624.464 1.624 1.46v.122l-.137.035-.452.15-.588.178c-1.782.568-2.308.758-2.878 1.055-.95.525-1.502 1.38-1.502 2.314 0 1.414 1.114 2.45 2.615 2.45 1.017 0 1.866-.264 2.88-.913l.207-.123c.09.847.594 1.06 2.876.917h3.31l1.858-2.79 1.94 2.79 3.585.003-3.7-4.857 3.367-4.558h-3.58l-1.613 2.516-1.706-2.516-3.606-.002 3.515 4.56-2.543 3.467c-.28.376-.89.13-.892-.365zM2.94 13.838c0-.56.383-1.828 1.504-1.828.984 0 1.433.752 1.426 2.39l.013 5.07H8.89v-5.61c0-.567.387-1.82 1.505-1.82.986 0 1.428.753 1.428 2.387l-.002 5.044h2.99v-5.63c0-.948-.113-1.613-.345-2.078-.58-1.132-1.678-1.806-3.093-1.806-2.093-.004-2.856 1.98-2.856 1.98-.68-1.47-1.804-1.984-3.336-1.984-1.14 0-1.868.77-2.228 1.456v-1.346H.005L0 19.47h2.95l-.01-5.632zM32.958 5.656c.438.08 1.017.37 1.575.823 0 0-.55-1.03-1.94-1.98-.386-.278-.545-.31-.594-.462-.04-.146.262-.166.607-.082 0 0 2.282.41 4.006 2.326 0 0-.908-2.105-3.687-3.37-.22-.105-.584-.196-.584-.353.008-.34 2.405-.377 5.72 2.798 0 0-.95-2.436-4.38-3.812-.326-.113-.53-.18-.46-.272.243-.276 2.723-.513 6.024 2.565 0 0-1.048-2.442-4.227-3.333-.255-.06-.474-.12-.322-.203.315-.137 1.546-.08 3.465.816 0 0-.495-.6-1.426-.978 0 0-.286-.112-.018-.096 0 0 2.09.163 3.046 1.987.168.32.053.572-.3.318-.08-.06-.69-.434-1.032-.585 0 0 .847.336 1.75 2.195 0 0 .493.94.08 1.185-.222.133-.498-.06-.746-.256-.177-.145-.754-.617-1.377-1.013 0 0 .852.656 1.327 2.058 0 0 .407.924-.172 1.214-.316.158-.657-.178-.898-.448-.234-.26-.387-.49-1.194-1.212.15.142.76 1.214.91 1.676.136.404.162.93-.295 1.004-.294.047-.54-.32-.718-.515 0 0-.584-.736-1.482-1.35 0 0 .257.225.482 1.175 0 0 .16.737-.365.69-.198-.018-.356-.17-.57-.38-1.1-1.08-1.903-1.455-2.003-1.345-.112.117.378.82.562 1.02.077.09.136.17.194.218.39.38.117.237-.13.058-.102-.074-.175-.13-.31-.246-.676-.584-1.012-1.22-1.136-1.51-.106-.284.024-.452.616-.328"/></g></svg>