<svg width="76" height="33" viewBox="0 0 76 33" xmlns="http://www.w3.org/2000/svg"><title>maxis</title><g fill="none" fill-rule="evenodd"><path fill="#293895" d="M62.56 32.136h-4.64v-15.52h4.647M75.17 20.962l-.262-.135c-1.576-.872-3.21-1.37-4.512-1.37-1.33 0-2.138.404-2.138 1.067 0 .668.165.803 2.77 1.842 2.18.87 3.278 1.57 4.117 2.61.528.696.8 1.505.8 2.502 0 3.136-2.274 4.91-6.287 4.91-1.932 0-4.34-.5-5.512-1.14v-3.407c1.876.972 3.44 1.442 4.914 1.442 1.435 0 2.34-.43 2.34-1.17 0-.668-.41-1.004-1.815-1.605l-1.133-.467c-.588-.266-.992-.435-1.23-.533-.5-.205-.938-.44-1.338-.667-1.27-.806-2.043-2.138-2.043-3.682 0-2.87 2.547-4.774 6.322-4.774 1.846 0 3.407.332 4.778 1.036l.237.098-.006 3.444zM34.738 28.28c-.726.7-1.772 1.134-2.576 1.134-.97 0-1.673-.704-1.673-1.64 0-1.103.8-1.906 2.552-2.544l1.266-.492.43-.175v3.716zm4.882.955l.006-7.613c0-1.477-.14-2.177-.463-2.812-.868-1.572-3.082-2.51-6.062-2.51-1.065-.004-2.47.165-3.407.43-1.007.267-2.407.902-3.315 1.442v3.943c1.54-1.602 3.742-2.604 5.683-2.604 1.847 0 2.678.766 2.678 2.412v.2l-.225.058-.746.244-.97.297c-2.94.938-3.808 1.25-4.75 1.74-1.564.868-2.475 2.277-2.475 3.82 0 2.334 1.838 4.045 4.314 4.045 1.68 0 3.08-.438 4.75-1.507l.344-.204c.15 1.397.98 1.75 4.745 1.514h5.464l3.063-4.608 3.2 4.608 5.916.003-6.103-8.013 5.555-7.52h-5.91l-2.66 4.15-2.815-4.15-5.95-.005 5.8 7.525-4.195 5.72c-.462.62-1.47.215-1.472-.602zM4.852 22.833c0-.926.63-3.017 2.48-3.017 1.624 0 2.364 1.24 2.353 3.944l.023 8.368h4.96V22.87c0-.937.638-3.002 2.484-3.002 1.627 0 2.356 1.24 2.356 3.936l-.003 8.324h4.932v-9.29c0-1.566-.186-2.664-.57-3.43-.96-1.868-2.768-2.98-5.103-2.98-3.453-.007-4.713 3.268-4.713 3.268-1.12-2.43-2.975-3.275-5.503-3.275-1.882 0-3.082 1.27-3.677 2.404v-2.22H.008L0 32.123l4.867.004-.015-9.295z"/><path d="M54.38 9.333c.724.13 1.68.61 2.6 1.357 0 0-.91-1.696-3.2-3.265-.64-.46-.9-.51-.98-.762-.064-.242.432-.274 1.002-.135 0 0 3.765.678 6.61 3.837 0 0-1.5-3.472-6.084-5.56-.362-.174-.963-.323-.963-.582.013-.558 3.968-.62 9.44 4.617 0 0-1.57-4.02-7.23-6.29-.537-.185-.873-.294-.76-.448.402-.455 4.495-.846 9.94 4.232 0 0-1.728-4.027-6.974-5.497-.417-.102-.78-.2-.528-.335.52-.227 2.55-.132 5.717 1.345 0 0-.818-.988-2.355-1.612 0 0-.47-.186-.03-.16 0 0 3.452.27 5.028 3.28.277.527.088.944-.492.524-.134-.103-1.138-.72-1.703-.967 0 0 1.397.554 2.89 3.622 0 0 .81 1.55.127 1.955-.365.22-.82-.098-1.23-.423-.29-.237-1.243-1.017-2.272-1.67 0 0 1.405 1.083 2.19 3.396 0 0 .67 1.524-.285 2.002-.522.263-1.084-.292-1.482-.737-.386-.43-.64-.81-1.97-2 .248.234 1.255 2.003 1.503 2.767.224.666.266 1.535-.488 1.655-.485.077-.894-.525-1.185-.85 0 0-.963-1.214-2.445-2.23 0 0 .423.374.795 1.942 0 0 .262 1.215-.602 1.138-.328-.03-.587-.28-.94-.627-1.818-1.784-3.14-2.4-3.306-2.218-.185.193.624 1.35.927 1.68.127.152.226.283.32.363.643.624.194.39-.214.095-.168-.125-.29-.216-.51-.41-1.117-.962-1.67-2.012-1.875-2.487-.176-.47.04-.747 1.016-.543" fill="#8CE600"/></g></svg>